<svg width="32" height="32" viewBox="0 0 32 32" fill="none" xmlns="http://www.w3.org/2000/svg">
  <!-- Globe circle -->
  <circle cx="16" cy="16" r="14" fill="#3B82F6" stroke="#1E40AF" stroke-width="1"/>
  
  <!-- Latitude lines -->
  <ellipse cx="16" cy="16" rx="14" ry="4" fill="none" stroke="#DBEAFE" stroke-width="0.8"/>
  <ellipse cx="16" cy="16" rx="14" ry="8" fill="none" stroke="#DBEAFE" stroke-width="0.8"/>
  <ellipse cx="16" cy="16" rx="14" ry="12" fill="none" stroke="#DBEAFE" stroke-width="0.8"/>
  
  <!-- Longitude lines -->
  <ellipse cx="16" cy="16" rx="4" ry="14" fill="none" stroke="#DBEAFE" stroke-width="0.8"/>
  <ellipse cx="16" cy="16" rx="8" ry="14" fill="none" stroke="#DBEAFE" stroke-width="0.8"/>
  <ellipse cx="16" cy="16" rx="12" ry="14" fill="none" stroke="#DBEAFE" stroke-width="0.8"/>
  
  <!-- Continents (simplified) -->
  <path d="M8 12c2-1 4-1 6 0s3 2 4 1" fill="none" stroke="#FFFFFF" stroke-width="1" stroke-linecap="round"/>
  <path d="M10 20c2-1 3-2 5-1s4 1 5-1" fill="none" stroke="#FFFFFF" stroke-width="1" stroke-linecap="round"/>
  <path d="M18 8c1 2 2 3 1 5" fill="none" stroke="#FFFFFF" stroke-width="1" stroke-linecap="round"/>
  
  <!-- Small islands/dots -->
  <circle cx="12" cy="10" r="0.8" fill="#FFFFFF"/>
  <circle cx="20" cy="14" r="0.6" fill="#FFFFFF"/>
  <circle cx="14" cy="22" r="0.7" fill="#FFFFFF"/>
</svg>